<svg version="1.1" viewBox="0 0 584.79 584.79" xmlns="http://www.w3.org/2000/svg" xmlns:xlink="http://www.w3.org/1999/xlink">
 <defs>
  <radialGradient id="radialGradient4449" cx="256" cy="335.53" r="125.9" gradientTransform="matrix(1.5428 -.0095308 .0066892 1.0828 -100.49 -1.1568)" gradientUnits="userSpaceOnUse">
   <stop stop-color="#00d900" stop-opacity=".25789" offset="0"/>
   <stop stop-color="#00d900" stop-opacity=".12105" offset=".5"/>
   <stop stop-color="#00d900" stop-opacity="0" offset="1"/>
  </radialGradient>
  <filter id="filter10458" x="-.80259" y="-.84378" width="2.6051" height="2.6875" color-interpolation-filters="sRGB">
   <feGaussianBlur stdDeviation="6.9992557"/>
  </filter>
  <filter id="filter10462" x="-.43003" y="-.45212" width="1.86" height="1.9042" color-interpolation-filters="sRGB">
   <feGaussianBlur stdDeviation="4.2740512"/>
  </filter>
  <filter id="filter10466" x="-.21616" y="-.22726" width="1.4323" height="1.4545" color-interpolation-filters="sRGB">
   <feGaussianBlur stdDeviation="2.4103098"/>
  </filter>
 </defs>
 <path d="m296.72 24.467-8e-3 2e-3c-22.24 0-43.828 12.043-59.025 33.064l-69.131 95.627-0.0137 0.0176c-6.9642 9.6924-10.7 21.468-11.574 33.828-0.81296 11.493 0.52226 17.262 3.1875 26.609 1.2039 4.2221 3.0129 8.2059 5.1406 11.957-17.562 2.8374-32.892 14.209-40.514 30.67l-37.154 80.24c-12.954 27.977-1.9921 61.557 24.975 76.502l21.971 12.178h-11.701c-21.738 0-41.801 15.824-41.801 37.938 0 11.524 5.4765 21.311 13.771 28.07l4.2812 15.898c4.7796 17.75 21.893 28.838 40.57 28.838h314.04c18.677 0 35.793-11.088 40.572-28.838l4.2812-15.898c8.2945-6.7589 13.77-16.546 13.77-28.07 0-22.114-20.063-37.938-41.801-37.938h-11.646l21.971-12.178c26.967-14.945 37.929-48.525 24.975-76.502l-41.41-87.633c-8.3609-12.424-21.507-20.906-36.293-23.285 2.1253-3.7282 3.8129-7.724 5.1504-11.883 1.7199-5.3474 3.6742-19.549 3.2109-26.605-0.81457-12.409-4.6364-24.22-11.646-33.93l-4e-3 -4e-3 -69.121-95.611c-15.197-21.022-36.783-33.064-59.023-33.064z"/>
 <path d="m196.28 296.07c-16.236 0-27.772 13.42-25.08 28.047l16.154 87.764c1.1953 6.4938 7.1877 11.496 14.646 11.496h189.41c7.4588 0 13.451-5.0023 14.646-11.496l16.154-87.764c2.6923-14.626-8.8438-28.047-25.08-28.047z" fill="#080e13"/>
 <path transform="matrix(.40365 -.090749 .089648 .40139 161.3 252.88)" d="m270.38 349.5c-2.3413-1.3542-5.5944-3.155-8.8086-4.8904-3.0494-1.6465-5.3085-2.8117-5.3085-2.8117-0.72167 3.9131-0.59747 5.9528-1.078 10.89-0.36346 3.7349-1.2348 6.2272-1.2348 6.2272-0.30519-2.8009-1.5978-6.3674-3.0248-10.568-1.2822-3.7748-2.0237-6.5359-2.0237-6.5359-1.8445 1.7305-4.3112 4.6543-6.5467 6.9823-2.2399 2.3325-4.3078 3.9478-4.3078 3.9478 1.8744-2.7985 3.1082-5.2112 4.8691-8.9533 1.4597-3.1022 2.7184-5.4714 2.7184-5.4714-1.8356-0.76285-4.2213-1.5952-6.5731-2.5954-2.2976-0.97718-4.8491-2.3339-4.8491-2.3339 2.6774-0.14755 4.9331-0.76529 7.4731-1.5693 2.2626-0.7162 4.082-1.2634 4.082-1.2634 0.248-2.1404 0.84386-5.18 1.1165-7.8876 0.26948-2.6757 0.0681-5.2044 0.0681-5.2044 1.9137 2.0479 3.4883 3.8046 4.9695 5.634 1.2721 1.5711 2.1684 2.79 2.1684 2.79 2.2255-1.3749 5.8281-3.2558 8.6062-5.0023 2.7887-1.7531 4.646-3.3934 4.646-3.3934-0.88414 2.9964-2.6287 5.3516-4.765 8.2825-1.8716 2.5677-3.1293 4.7496-3.1293 4.7496 3.4957 0.11416 6.5477 0.44508 11.27 0.91123 3.9837 0.39321 7.0729 0.55284 7.0729 0.55284-3.9379 1.0971-7.0567 1.5335-11.845 2.4856-3.8958 0.77456-6.5704 1.6294-6.5704 1.6294 3.3229 4.2153 7.7538 9.0976 11.004 13.398z" fill="#00d900" filter="url(#filter10458)" opacity=".47432" stroke="#00d900" stroke-linecap="round" stroke-linejoin="round" stroke-miterlimit="3" stroke-width="36.364" style="mix-blend-mode:normal"/>
 <rect x="96.067" y="440.16" width="401.28" height="45.878" ry="26.8" fill="#4b82b1" stroke-linecap="round" stroke-linejoin="round" stroke-miterlimit="3" stroke-width="2.9909"/>
 <path d="m113.6 503.17c2.7418 10.183 13.335 17.738 26.088 17.738h314.04c12.753 0 23.346-7.5558 26.088-17.738z" fill="#4b82b1" stroke-linecap="round" stroke-linejoin="round" stroke-miterlimit="3" stroke-width="2.8628"/>
 <path d="m205.43 186.27c-11.301 5.3438-22.014 11.701-32.1 18.885a30.657 42.405 0 0 0 7.3867 16.742l40.607 56.17h150.76l40.607-56.17a30.657 42.405 0 0 0 7.4531-16.787c-10.106-7.1715-20.858-13.493-32.166-18.84-7.6301 48.123-45.25 85.33-91.275 85.33s-83.645-37.207-91.275-85.33z" fill="#7db4e4" stroke-linecap="round" stroke-linejoin="round" stroke-miterlimit="3" stroke-width="33.655"/>
 <path d="m296.71 165.84c-23.283 0-45.67 3.7548-66.636 10.638-5.7714 1.8948-9.8451 8.6148-8.4688 14.529 8.8552 38.049 39.389 65.593 75.104 65.593s66.248-27.543 75.104-65.591c1.3765-5.9139-2.6971-12.634-8.4684-14.529-20.966-6.8836-43.353-10.64-66.636-10.64z" fill="#b7c9d9" stroke-linecap="round" stroke-linejoin="round" stroke-miterlimit="3" stroke-width="33.655"/>
 <path d="m296.71 39.469c-16.964 0-33.926 8.9507-46.869 26.854l-69.119 95.607a30.657 42.405 0 0 0-8.7871 26.059c35.887-23.468 78.735-37.146 124.78-37.146 46.07 0 88.928 13.721 124.83 37.219a30.657 42.405 0 0 0-8.8398-26.131l-69.119-95.607c-12.943-17.903-29.906-26.854-46.869-26.854z" fill="#7db4e4" stroke-linecap="round" stroke-linejoin="round" stroke-miterlimit="3" stroke-width="33.655"/>
 <path d="m418.22 239.86-27.623 38.209h6.5371c26.6 0 47.52 23.573 42.783 49.305l-16.154 87.766c-0.43072 2.3399-1.1455 4.561-2.0566 6.6719h12.299l39.594-21.945a44.083 44.083 0 0 0 18.635-57.08l-37.156-80.24c-6.4051-13.833-20.26-22.686-35.504-22.686z" fill="#7db4e4" stroke-linecap="round" stroke-linejoin="round" stroke-miterlimit="3" stroke-width="15"/>
 <path d="m173.9 239.86c-15.244-1e-5 -29.099 8.8529-35.504 22.686l-37.154 80.24a44.084 44.084 0 0 0 18.635 57.08l39.594 21.945h12.244c-0.91114-2.1109-1.6259-4.332-2.0566-6.6719l-16.154-87.766c-4.7366-25.732 16.184-49.305 42.783-49.305h6.5371l-27.623-38.209z" fill="#7db4e4" stroke-linecap="round" stroke-linejoin="round" stroke-miterlimit="3" stroke-width="15"/>
 <path d="m196.28 296.07c-16.236 0-27.772 13.42-25.08 28.047l16.154 87.764c1.1953 6.4938 7.1877 11.496 14.646 11.496h189.41c7.4588 0 13.451-5.0023 14.646-11.496l16.154-87.764c2.6923-14.626-8.8438-28.047-25.08-28.047z" fill="url(#radialGradient4449)"/>
 <path transform="matrix(.40365 -.090749 .089648 .40139 161.3 252.88)" d="m270.38 349.5c-2.341-1.354-5.595-3.155-8.809-4.891-3.049-1.646-5.308-2.811-5.308-2.811-0.722 3.913-0.598 5.953-1.078 10.89-0.364 3.735-1.235 6.227-1.235 6.227-0.305-2.801-1.598-6.367-3.025-10.568-1.282-3.775-2.023-6.536-2.023-6.536-1.845 1.731-4.312 4.655-6.547 6.983-2.24 2.332-4.308 3.947-4.308 3.947 1.874-2.798 3.108-5.211 4.869-8.953 1.46-3.102 2.719-5.471 2.719-5.471-1.836-0.763-4.222-1.596-6.574-2.596-2.297-0.977-4.849-2.334-4.849-2.334 2.678-0.147 4.934-0.765 7.474-1.569 2.262-0.71601 4.081-1.263 4.081-1.263 0.248-2.141 0.844-5.18 1.117-7.888 0.269-2.676 0.068-5.204 0.068-5.204 1.914 2.048 3.488 3.804 4.97 5.634 1.272 1.571 2.168 2.79 2.168 2.79 2.226-1.375 5.828-3.256 8.606-5.003 2.789-1.753 4.646-3.393 4.646-3.393-0.884 2.996-2.628 5.352-4.765 8.283-1.871 2.567-3.129 4.749-3.129 4.749 3.496 0.114 6.548 0.445 11.27 0.911 3.984 0.394 7.073 0.553 7.073 0.553-3.938 1.097-7.057 1.534-11.845 2.486-3.896 0.774-6.57 1.629-6.57 1.629 3.323 4.216 7.754 9.098 11.004 13.398z" fill="#55e555" filter="url(#filter10462)" opacity=".47544" stroke="#55e555" stroke-linecap="round" stroke-linejoin="round" stroke-width="16.97" style="mix-blend-mode:normal"/>
 <path transform="matrix(.40365 -.090749 .089648 .40139 161.3 252.88)" d="m270.38 349.5c-2.341-1.354-5.594-3.155-8.808-4.89-3.05-1.646-5.309-2.812-5.309-2.812-0.721 3.914-0.597 5.953-1.078 10.891-0.363 3.734-1.234 6.227-1.234 6.227-0.306-2.801-1.598-6.368-3.025-10.568-1.283-3.775-2.024-6.536-2.024-6.536-1.844 1.73-4.311 4.654-6.547 6.982-2.239 2.333-4.307 3.948-4.307 3.948 1.874-2.799 3.108-5.211 4.869-8.953 1.459-3.103 2.718-5.472 2.718-5.472-1.836-0.763-4.221-1.595-6.573-2.595-2.298-0.977-4.849-2.334-4.849-2.334 2.677-0.148 4.933-0.765 7.473-1.569 2.263-0.717 4.082-1.264 4.082-1.264 0.248-2.14 0.844-5.1799 1.117-7.8874 0.269-2.6757 0.068-5.2044 0.068-5.2044 1.913 2.0479 3.488 3.8046 4.969 5.634 1.272 1.5711 2.169 2.7901 2.169 2.7901 2.225-1.3749 5.828-3.2558 8.606-5.0023 2.788-1.7531 4.646-3.3934 4.646-3.3934-0.884 2.9964-2.629 5.3516-4.765 8.2825-1.872 2.5679-3.129 4.7499-3.129 4.7499 3.495 0.114 6.547 0.445 11.27 0.911 3.984 0.393 7.073 0.553 7.073 0.553-3.938 1.097-7.057 1.533-11.845 2.485-3.896 0.775-6.571 1.63-6.571 1.63 3.323 4.215 7.754 9.097 11.004 13.397z" fill="#aaf2aa" filter="url(#filter10466)" opacity=".50702" stroke="#aaf2aa" stroke-linecap="round" stroke-linejoin="round" stroke-width="7.2728" style="mix-blend-mode:normal"/>
 <g transform="matrix(.58656 0 0 .5885 144.61 165.05)" fill="#fff" stroke-width="0">
  <path d="m267.93 345.92c-1.8182-0.56263-4.3321-1.2892-6.8092-1.9772-2.3501-0.65277-4.0828-1.0991-4.0828-1.0991 0.10144 2.7802 0.49864 4.1522 0.9226 7.594 0.32071 2.6034 0.10201 4.4377 0.10201 4.4377-0.63809-1.8633-2.0727-4.0965-3.6967-6.7417-1.4593-2.3769-2.3915-4.1458-2.3915-4.1458-1.0048 1.4647-2.2554 3.8393-3.438 5.7718-1.1849 1.9363-2.3611 3.3569-2.3611 3.3569 0.86214-2.1978 1.3425-4.0336 1.9823-6.8575 0.53039-2.3409 1.0345-4.151 1.0345-4.151-1.3798-0.23724-3.1487-0.43709-4.92-0.75662-1.7305-0.31219-3.6936-0.8441-3.6936-0.8441 1.8199-0.5135 3.2778-1.2827 4.9028-2.2227 1.4476-0.83739 2.616-1.4911 2.616-1.4911-0.15647-1.4981-0.21099-3.6632-0.43715-5.5519-0.2235-1.8666-0.74855-3.5602-0.74855-3.5602 1.6299 1.1017 2.982 2.0571 4.2809 3.0764 1.1155 0.87539 1.9186 1.5686 1.9186 1.5686 1.3214-1.281 3.5131-3.1194 5.1579-4.7389 1.6511-1.6258 2.6786-3.0309 2.6786-3.0309-0.15047 2.18-0.99104 4.0554-2.0132 6.3839-0.8955 2.0399-1.4276 3.7221-1.4276 3.7221 2.4231-0.46119 4.5739-0.70611 7.895-1.1164 2.8015-0.34612 4.9518-0.7136 4.9518-0.7136-2.5422 1.3555-4.6217 2.1341-7.7713 3.5218-2.5625 1.129-4.2724 2.1246-4.2724 2.1246 2.931 2.3626 6.7263 5.0094 9.6202 7.441z" fill="#fff" stroke-miterlimit="3" stroke-width="0"/>
 </g>
</svg>
