<svg version="1.1" viewBox="0 0 2001.8 575.32" xmlns="http://www.w3.org/2000/svg" xmlns:xlink="http://www.w3.org/1999/xlink">
  <defs>
    <linearGradient id="linearGradient11260">
      <stop stop-color="#fff" offset="0"/>
      <stop stop-color="#fff" stop-opacity="0" offset="1"/>
    </linearGradient>
    <linearGradient id="linearGradient1073">
      <stop stop-color="#0d0" offset="0"/>
      <stop stop-color="#0d0" stop-opacity="0" offset="1"/>
    </linearGradient>
    <linearGradient id="linearGradient1075" x1="166.02" x2="-491.21" y1="391.38" y2="403.11" gradientTransform="translate(165.13 -123.52)" gradientUnits="userSpaceOnUse" xlink:href="#linearGradient1073"/>
    <radialGradient id="radialGradient4449" cx="256" cy="335.53" r="125.9" gradientTransform="matrix(1.5428 -.0095308 .0066892 1.0828 -141.2 -25.345)" gradientUnits="userSpaceOnUse">
      <stop stop-color="#00d900" stop-opacity=".25789" offset="0"/>
      <stop stop-color="#00d900" stop-opacity=".12105" offset=".5"/>
      <stop stop-color="#00d900" stop-opacity="0" offset="1"/>
    </radialGradient>
    <filter id="filter10434" x="-.11235" y="-10.392" width="1.2247" height="21.784" color-interpolation-filters="sRGB">
      <feGaussianBlur stdDeviation="36.604636"/>
    </filter>
    <filter id="filter10442" x="-.12996" y="-12.021" width="1.2599" height="25.042" color-interpolation-filters="sRGB">
      <feGaussianBlur stdDeviation="46.327742"/>
    </filter>
    <filter id="filter10446" x="-.13139" y="-12.154" width="1.2628" height="25.308" color-interpolation-filters="sRGB">
      <feGaussianBlur stdDeviation="48.40963"/>
    </filter>
    <filter id="filter10458" x="-.80258" y="-.84378" width="2.6051" height="2.6875" color-interpolation-filters="sRGB">
      <feGaussianBlur stdDeviation="6.9992557"/>
    </filter>
    <filter id="filter10462" x="-.43003" y="-.45212" width="1.86" height="1.9042" color-interpolation-filters="sRGB">
      <feGaussianBlur stdDeviation="4.2740512"/>
    </filter>
    <filter id="filter10466" x="-.21616" y="-.22726" width="1.4323" height="1.4545" color-interpolation-filters="sRGB">
      <feGaussianBlur stdDeviation="2.4103098"/>
    </filter>
    <linearGradient id="linearGradient11262" x1="81.776" x2="-575.45" y1="416.95" y2="428.68" gradientTransform="translate(249.37 -149.09)" gradientUnits="userSpaceOnUse" xlink:href="#linearGradient11260"/>
    <linearGradient id="linearGradient11268" x1="166.02" x2="-491.21" y1="391.38" y2="403.11" gradientTransform="translate(-78.292 24.373)" gradientUnits="userSpaceOnUse" xlink:href="#linearGradient1073"/>
    <linearGradient id="linearGradient11270" x1="81.776" x2="-575.45" y1="416.95" y2="428.68" gradientTransform="translate(5.9474 -1.1958)" gradientUnits="userSpaceOnUse" xlink:href="#linearGradient11260"/>
    <linearGradient id="linearGradient11284" x1="166.02" x2="-491.21" y1="391.38" y2="403.11" gradientTransform="translate(23.129 -10.548)" gradientUnits="userSpaceOnUse" xlink:href="#linearGradient1073"/>
    <linearGradient id="linearGradient11286" x1="81.776" x2="-575.45" y1="416.95" y2="428.68" gradientTransform="translate(107.37 -36.116)" gradientUnits="userSpaceOnUse" xlink:href="#linearGradient11260"/>
    <linearGradient id="linearGradient11300" x1="166.02" x2="-491.21" y1="391.38" y2="403.11" gradientTransform="translate(108.87 -66.476)" gradientUnits="userSpaceOnUse" xlink:href="#linearGradient1073"/>
    <linearGradient id="linearGradient11302" x1="81.776" x2="-575.45" y1="416.95" y2="428.68" gradientTransform="translate(193.11 -92.044)" gradientUnits="userSpaceOnUse" xlink:href="#linearGradient11260"/>
  </defs>
  <g transform="translate(613.19 -10.228)">
    <path d="m155.57 271.88c-16.236 0-27.772 13.42-25.08 28.047l16.154 87.764c1.1953 6.4938 7.1877 11.496 14.646 11.496h189.41c7.4588 0 13.451-5.0023 14.646-11.496l16.154-87.764c2.6923-14.626-8.8438-28.047-25.08-28.047z" fill="#080e13"/>
    <path transform="matrix(.40365 -.090749 .089648 .40139 120.59 228.69)" d="m270.38 349.5c-2.3413-1.3542-5.5944-3.155-8.8086-4.8904-3.0494-1.6465-5.3085-2.8117-5.3085-2.8117-0.72167 3.9131-0.59747 5.9528-1.078 10.89-0.36346 3.7349-1.2348 6.2272-1.2348 6.2272-0.30519-2.8009-1.5978-6.3674-3.0248-10.568-1.2822-3.7748-2.0237-6.5359-2.0237-6.5359-1.8445 1.7305-4.3112 4.6543-6.5467 6.9823-2.2399 2.3325-4.3078 3.9478-4.3078 3.9478 1.8744-2.7985 3.1082-5.2112 4.8691-8.9533 1.4597-3.1022 2.7184-5.4714 2.7184-5.4714-1.8356-0.76285-4.2213-1.5952-6.5731-2.5954-2.2976-0.97718-4.8491-2.3339-4.8491-2.3339 2.6774-0.14755 4.9331-0.76529 7.4731-1.5693 2.2626-0.7162 4.082-1.2634 4.082-1.2634 0.248-2.1404 0.84386-5.18 1.1165-7.8876 0.26948-2.6757 0.0681-5.2044 0.0681-5.2044 1.9137 2.0479 3.4883 3.8046 4.9695 5.634 1.2721 1.5711 2.1684 2.79 2.1684 2.79 2.2255-1.3749 5.8281-3.2558 8.6062-5.0023 2.7887-1.7531 4.646-3.3934 4.646-3.3934-0.88414 2.9964-2.6287 5.3516-4.765 8.2825-1.8716 2.5677-3.1293 4.7496-3.1293 4.7496 3.4957 0.11416 6.5477 0.44508 11.27 0.91123 3.9837 0.39321 7.0729 0.55284 7.0729 0.55284-3.9379 1.0971-7.0567 1.5335-11.845 2.4856-3.8958 0.77456-6.5704 1.6294-6.5704 1.6294 3.3229 4.2153 7.7538 9.0976 11.004 13.398z" fill="#00d900" filter="url(#filter10458)" opacity=".47432" stroke="#00d900" stroke-linecap="round" stroke-linejoin="round" stroke-miterlimit="3" stroke-width="36.364" style="mix-blend-mode:normal"/>
    <rect x="55.36" y="415.97" width="401.28" height="45.878" ry="26.8" fill="#4b82b1" stroke-linecap="round" stroke-linejoin="round" stroke-miterlimit="3" stroke-width="2.9909"/>
    <path d="m72.895 478.98c2.7418 10.183 13.335 17.738 26.088 17.738h314.04c12.753 0 23.346-7.5558 26.088-17.738z" fill="#4b82b1" stroke-linecap="round" stroke-linejoin="round" stroke-miterlimit="3" stroke-width="2.8628"/>
    <path d="m164.72 162.08c-11.301 5.3438-22.014 11.701-32.1 18.885a30.657 42.405 0 0 0 7.3867 16.742l40.607 56.17h150.76l40.607-56.17a30.657 42.405 0 0 0 7.4531-16.787c-10.106-7.1715-20.858-13.493-32.166-18.84-7.6301 48.123-45.25 85.33-91.275 85.33-46.025 0-83.645-37.207-91.275-85.33z" fill="#7db4e4" stroke-linecap="round" stroke-linejoin="round" stroke-miterlimit="3" stroke-width="33.655"/>
    <path d="m256 141.65c-23.283 0-45.67 3.7548-66.636 10.638-5.7714 1.8948-9.8451 8.6148-8.4688 14.529 8.8552 38.049 39.389 65.593 75.104 65.593 35.715 0 66.248-27.543 75.104-65.591 1.3765-5.9139-2.6971-12.634-8.4684-14.529-20.966-6.8836-43.353-10.64-66.636-10.64z" fill="#b7c9d9" stroke-linecap="round" stroke-linejoin="round" stroke-miterlimit="3" stroke-width="33.655"/>
    <path d="m256 15.281c-16.964 0-33.926 8.9507-46.869 26.854l-69.119 95.607a30.657 42.405 0 0 0-8.7871 26.059c35.887-23.468 78.735-37.146 124.78-37.146 46.07 0 88.928 13.721 124.83 37.219a30.657 42.405 0 0 0-8.8398-26.131l-69.119-95.607c-12.943-17.903-29.906-26.854-46.869-26.854z" fill="#7db4e4" stroke-linecap="round" stroke-linejoin="round" stroke-miterlimit="3" stroke-width="33.655"/>
    <path d="m377.51 215.67-27.623 38.209h6.5371c26.6 0 47.52 23.573 42.783 49.305l-16.154 87.766c-0.43072 2.3399-1.1455 4.561-2.0566 6.6719h12.299l39.594-21.945a44.083 44.083 0 0 0 18.635-57.08l-37.156-80.24c-6.4051-13.833-20.26-22.686-35.504-22.686z" fill="#7db4e4" stroke-linecap="round" stroke-linejoin="round" stroke-miterlimit="3" stroke-width="15"/>
    <path d="m133.19 215.67c-15.244-1e-5 -29.099 8.8529-35.504 22.686l-37.154 80.24a44.084 44.084 0 0 0 18.635 57.08l39.594 21.945h12.244c-0.91114-2.1109-1.6259-4.332-2.0566-6.6719l-16.154-87.766c-4.7366-25.732 16.184-49.305 42.783-49.305h6.5371l-27.623-38.209z" fill="#7db4e4" stroke-linecap="round" stroke-linejoin="round" stroke-miterlimit="3" stroke-width="15"/>
    <path d="m155.57 271.88c-16.236 0-27.772 13.42-25.08 28.047l16.154 87.764c1.1953 6.4938 7.1877 11.496 14.646 11.496h189.41c7.4588 0 13.451-5.0023 14.646-11.496l16.154-87.764c2.6923-14.626-8.8438-28.047-25.08-28.047z" fill="url(#radialGradient4449)"/>
    <path transform="matrix(.40365 -.090749 .089648 .40139 120.59 228.69)" d="m270.38 349.5c-2.341-1.354-5.595-3.155-8.809-4.891-3.049-1.646-5.308-2.811-5.308-2.811-0.722 3.913-0.598 5.953-1.078 10.89-0.364 3.735-1.235 6.227-1.235 6.227-0.305-2.801-1.598-6.367-3.025-10.568-1.282-3.775-2.023-6.536-2.023-6.536-1.845 1.731-4.312 4.655-6.547 6.983-2.24 2.332-4.308 3.947-4.308 3.947 1.874-2.798 3.108-5.211 4.869-8.953 1.46-3.102 2.719-5.471 2.719-5.471-1.836-0.763-4.222-1.596-6.574-2.596-2.297-0.977-4.849-2.334-4.849-2.334 2.678-0.147 4.934-0.765 7.474-1.569 2.262-0.71601 4.081-1.263 4.081-1.263 0.248-2.141 0.844-5.18 1.117-7.888 0.269-2.676 0.068-5.204 0.068-5.204 1.914 2.048 3.488 3.804 4.97 5.634 1.272 1.571 2.168 2.79 2.168 2.79 2.226-1.375 5.828-3.256 8.606-5.003 2.789-1.753 4.646-3.393 4.646-3.393-0.884 2.996-2.628 5.352-4.765 8.283-1.871 2.567-3.129 4.749-3.129 4.749 3.496 0.114 6.548 0.445 11.27 0.911 3.984 0.394 7.073 0.553 7.073 0.553-3.938 1.097-7.057 1.534-11.845 2.486-3.896 0.774-6.57 1.629-6.57 1.629 3.323 4.216 7.754 9.098 11.004 13.398z" fill="#55e555" filter="url(#filter10462)" opacity=".47544" stroke="#55e555" stroke-linecap="round" stroke-linejoin="round" stroke-width="16.97" style="mix-blend-mode:normal"/>
    <path transform="matrix(.40365 -.090749 .089648 .40139 120.59 228.69)" d="m270.38 349.5c-2.341-1.354-5.594-3.155-8.808-4.89-3.05-1.646-5.309-2.812-5.309-2.812-0.721 3.914-0.597 5.953-1.078 10.891-0.363 3.734-1.234 6.227-1.234 6.227-0.306-2.801-1.598-6.368-3.025-10.568-1.283-3.775-2.024-6.536-2.024-6.536-1.844 1.73-4.311 4.654-6.547 6.982-2.239 2.333-4.307 3.948-4.307 3.948 1.874-2.799 3.108-5.211 4.869-8.953 1.459-3.103 2.718-5.472 2.718-5.472-1.836-0.763-4.221-1.595-6.573-2.595-2.298-0.977-4.849-2.334-4.849-2.334 2.677-0.148 4.933-0.765 7.473-1.569 2.263-0.717 4.082-1.264 4.082-1.264 0.248-2.14 0.844-5.1799 1.117-7.8874 0.269-2.6757 0.068-5.2044 0.068-5.2044 1.913 2.0479 3.488 3.8046 4.969 5.634 1.272 1.5711 2.169 2.7901 2.169 2.7901 2.225-1.3749 5.828-3.2558 8.606-5.0023 2.788-1.7531 4.646-3.3934 4.646-3.3934-0.884 2.9964-2.629 5.3516-4.765 8.2825-1.872 2.5679-3.129 4.7499-3.129 4.7499 3.495 0.114 6.547 0.445 11.27 0.911 3.984 0.393 7.073 0.553 7.073 0.553-3.938 1.097-7.057 1.533-11.845 2.485-3.896 0.775-6.571 1.63-6.571 1.63 3.323 4.215 7.754 9.097 11.004 13.397z" fill="#aaf2aa" filter="url(#filter10466)" opacity=".50702" stroke="#aaf2aa" stroke-linecap="round" stroke-linejoin="round" stroke-width="7.2728" style="mix-blend-mode:normal"/>
    <text transform="rotate(-24.877)" x="-364.84174" y="430.61847" fill="url(#linearGradient11268)" font-family="'MICR Encoding'" font-size="53.333px" letter-spacing="3.47px" stroke="url(#linearGradient11270)" stroke-width="2" text-align="center" text-anchor="middle" style="font-variant-caps:normal;font-variant-east-asian:normal;font-variant-ligatures:normal;font-variant-numeric:normal;line-height:66.28px;paint-order:markers stroke fill" xml:space="preserve"><tspan x="-363.10672" y="430.61847" dx="0" fill="url(#linearGradient11268)" stroke="url(#linearGradient11270)" stroke-width="2" style="paint-order:markers stroke fill">01101001010111011000101101101</tspan></text>
    <text transform="rotate(-10.429)" x="-263.42099" y="395.69797" fill="url(#linearGradient11284)" font-family="'MICR Encoding'" font-size="53.333px" letter-spacing="3.47px" stroke="url(#linearGradient11286)" stroke-width="2" text-align="center" text-anchor="middle" style="font-variant-caps:normal;font-variant-east-asian:normal;font-variant-ligatures:normal;font-variant-numeric:normal;line-height:66.28px;paint-order:markers stroke fill" xml:space="preserve"><tspan x="-261.68597" y="395.69797" dx="0" fill="url(#linearGradient11284)" stroke="url(#linearGradient11286)" stroke-width="2" style="paint-order:markers stroke fill">01101001010111011000101101101</tspan></text>
    <text transform="rotate(3.356)" x="-177.67921" y="339.77014" fill="url(#linearGradient11300)" font-family="'MICR Encoding'" font-size="53.333px" letter-spacing="3.47px" stroke="url(#linearGradient11302)" stroke-width="2" text-align="center" text-anchor="middle" style="font-variant-caps:normal;font-variant-east-asian:normal;font-variant-ligatures:normal;font-variant-numeric:normal;line-height:66.28px;paint-order:markers stroke fill" xml:space="preserve"><tspan x="-175.9442" y="339.77014" dx="0" fill="url(#linearGradient11300)" stroke="url(#linearGradient11302)" stroke-width="2" style="paint-order:markers stroke fill">01101001010111011000101101101</tspan></text>
    <text transform="rotate(14.134)" x="-121.42332" y="282.72839" fill="url(#linearGradient1075)" font-family="'MICR Encoding'" font-size="53.333px" letter-spacing="3.47px" stroke="url(#linearGradient11262)" stroke-width="2" text-align="center" text-anchor="middle" style="font-variant-caps:normal;font-variant-east-asian:normal;font-variant-ligatures:normal;font-variant-numeric:normal;line-height:66.28px;paint-order:markers stroke fill" xml:space="preserve"><tspan x="-119.68831" y="282.72839" dx="0" fill="url(#linearGradient1075)" stroke="url(#linearGradient11262)" stroke-width="2" style="paint-order:markers stroke fill">01101001010111011000101101101</tspan></text>
    <rect transform="matrix(1 0 0 .2929 -340.84 240.94)" x="593.51" y="332.36" width="905.33" height="9.7873" ry="4.8937" fill="#00d900" filter="url(#filter10434)" opacity=".5614" stroke="#00d900" stroke-linecap="round" stroke-linejoin="round" stroke-miterlimit="3" stroke-width="27.716"/>
    <rect transform="matrix(1 0 0 .2929 -340.84 240.94)" x="593.51" y="332.36" width="905.33" height="9.7873" ry="4.8937" fill="#55e555" filter="url(#filter10442)" opacity=".55965" stroke="#55e555" stroke-linecap="round" stroke-linejoin="round" stroke-miterlimit="3" stroke-width="12.934"/>
    <rect transform="matrix(1 0 0 .2929 -340.84 240.94)" x="593.51" y="332.36" width="905.33" height="9.7873" ry="4.8937" fill="#aaf2aa" fill-opacity=".94118" filter="url(#filter10446)" opacity=".5579" stroke="#aaf2aa" stroke-linecap="round" stroke-linejoin="round" stroke-miterlimit="3" stroke-opacity=".94118" stroke-width="5.5432"/>
    <rect x="252.66" y="338.28" width="905.33" height="2.8667" ry="1.4333" fill="#fff"/>
    <path d="m261.06 344.44c-1.0665-0.3311-2.541-0.75866-3.994-1.1636-1.3785-0.38415-2.3948-0.64682-2.3948-0.64682 0.0595 1.6362 0.29248 2.4436 0.54116 4.469 0.18811 1.5321 0.0598 2.6116 0.0598 2.6116-0.37428-1.0965-1.2158-2.4108-2.1684-3.9674-0.85597-1.3988-1.4028-2.4398-1.4028-2.4398-0.58938 0.86197-1.3229 2.2594-2.0166 3.3967-0.69501 1.1395-1.3849 1.9755-1.3849 1.9755 0.50569-1.2934 0.78746-2.3738 1.1627-4.0356 0.31111-1.3776 0.60678-2.4429 0.60678-2.4429-0.80932-0.13961-1.8469-0.25722-2.8859-0.44527-1.015-0.18372-2.1665-0.49675-2.1665-0.49675 1.0675-0.30219 1.9226-0.75485 2.8758-1.3081 0.84908-0.4928 1.5344-0.87753 1.5344-0.87753-0.0918-0.88164-0.12376-2.1558-0.25642-3.2673-0.13109-1.0985-0.43906-2.0952-0.43906-2.0952 0.95605 0.64833 1.7491 1.2106 2.511 1.8104 0.65431 0.51517 1.1254 0.92311 1.1254 0.92311 0.77508-0.75384 2.0606-1.8357 3.0254-2.7888 0.96849-0.95676 1.5711-1.7837 1.5711-1.7837-0.0883 1.2829-0.5813 2.3866-1.1809 3.7569-0.52526 1.2005-0.83734 2.1904-0.83734 2.1904 1.4213-0.27141 2.6828-0.41554 4.6309-0.65701 1.6433-0.20369 2.9045-0.41995 2.9045-0.41995-1.4912 0.79771-2.7109 1.2559-4.5584 2.0726-1.5031 0.66443-2.506 1.2503-2.506 1.2503 1.7192 1.3904 3.9454 2.948 5.6428 4.379z" fill="#fff" stroke-miterlimit="3" stroke-width="0"/>
    <text x="422.03589" y="309.18301" fill="#ff0000" font-family="Inter" font-size="142.76px" font-weight="900" letter-spacing="17.014px" style="font-variant-caps:normal;font-variant-east-asian:normal;font-variant-ligatures:normal;font-variant-numeric:normal;line-height:177.418px" xml:space="preserve"><tspan x="422.03589" y="309.18301">HACKER</tspan></text>
    <text x="512.36774" y="472.75635" fill="#ff0000" font-family="Inter" font-size="142.76px" font-weight="900" letter-spacing="17.014px" style="font-variant-caps:normal;font-variant-east-asian:normal;font-variant-ligatures:normal;font-variant-numeric:normal;line-height:177.418px" xml:space="preserve"><tspan x="512.36774" y="472.75635">POINT</tspan></text>
  </g>
</svg>
