<svg version="1.1" viewBox="0 0 816.12 280.24" xmlns="http://www.w3.org/2000/svg" xmlns:xlink="http://www.w3.org/1999/xlink">
 <defs>
  <filter id="filter10434" x="-.080599" y="-18.21" width="1.1612" height="37.419" color-interpolation-filters="sRGB">
   <feGaussianBlur stdDeviation="17.828796"/>
  </filter>
  <filter id="filter10442" x="-.052491" y="-343.41" width="1.105" height="687.82" color-interpolation-filters="sRGB">
   <feGaussianBlur stdDeviation="16.001468"/>
  </filter>
  <filter id="filter10446" x="-.035559" y="-216.35" width="1.0711" height="433.7" color-interpolation-filters="sRGB">
   <feGaussianBlur stdDeviation="10.623746"/>
  </filter>
 </defs>
 <path d="m98.108 113.84-0.0346-40.028h27.312v40.559h38.188v-113.83h-38.188v40.559h-27.312v-40.559h-38.188c-1.1798 87.23 0.76547 0.31638-1.1798 87.23l0.0672 25.962zm266.25-114.71c-10.053 0-19.387 2.2345-27.709 6.7266-1e-3 6.9e-4 0 9.7e-4 0 2e-3 -8.4036 4.5029-15.165 11.272-20.039 19.945-1e-3 2e-3 0 4e-3 0 6e-3v2e-3c-4.9706 8.8151-7.332 19.452-7.332 31.65 0 12.124 2.3069 22.723 7.1562 31.557l0.01 0.016c4.8039 8.684 11.515 15.481 19.887 20.023l0.01 4e-3c8.3426 4.5065 17.783 6.7344 28.029 6.7344 8.1156 0 15.448-1.2422 21.906-3.8633 6.2629-2.542 11.67-5.9691 16.072-10.295 4.2963-4.2222 7.694-8.9076 10.094-14.012v-0.014c2.3465-5.0281 3.7649-10.104 4.1543-15.166l0.4102-5.3457-38.283-0.27148-0.6485 4.2812c-0.2604 1.7188-0.7431 3.1459-1.4199 4.3828l-0.01 0.0137-0.01 0.0156c-0.6509 1.2089-1.4483 2.1757-2.4746 3.0195-0.9966 0.81949-2.2013 1.4792-3.7207 1.9824-1.4861 0.45913-3.2974 0.73242-5.4746 0.73242-3.7773 0-6.6082-0.83178-8.9512-2.3652-2.3124-1.546-4.144-3.8172-5.5645-7.3164-1.3766-3.5075-2.1816-8.2146-2.1816-14.113 0-5.5484 0.7749-10.085 2.1445-13.643 1.3993-3.548 3.2499-5.9336 5.623-7.6172 2.3506-1.6445 5.2165-2.5352 9.1328-2.5352 2.2247 0 4.0463 0.31779 5.5352 0.86133l0.033 0.0137 0.033 0.0117c1.5363 0.5365 2.6808 1.245 3.6211 2.1426l0.041 0.0391 0.043 0.0391c1.009 0.91927 1.759 1.9615 2.3379 3.2812l0.014 0.0332 0.016 0.0332c0.6183 1.3555 1.0293 2.9224 1.1894 4.791l0.3926 4.5723h38.619l-0.4531-5.418c-0.586-6.9959-2.2746-13.38-5.1367-19.027-2.8231-5.571-6.6208-10.361-11.312-14.217-4.6638-3.8663-10.087-6.792-16.139-8.7598-6.0638-1.9716-12.632-2.9316-19.645-2.9316zm-148.18 1.418-37.57 113.83h41.047l1.0723-3.5547 4.9258-16.318h26.811l6 19.873h41.047l-37.572-113.83zm220.22 0v113.83h38.188v-30.072l3.8203-4.9824 20.994 35.055h45.504l-38.836-62.314 39.088-51.514h-45.434l-25.137 33.785v-33.785zm119.02 0v113.83h84.627v-32.713h-46.44v-7.8457h42.789v-32.711h-42.789v-7.8457h46.641v-32.713zm105.84 0v113.83h38.188v-34.271h1.752l18.228 34.271h42.041l-22.799-41.861c4.0704-2.6994 7.5362-6.0718 10.16-10.15 0-2e-3 9e-4 -4e-3 0-6e-3 3.9134-6.0326 5.7734-13.35 5.7734-21.525 0-8.0942-1.7979-15.404-5.5469-21.561-3.699-6.0742-9.0131-10.83-15.572-14.014-6.5646-3.1864-14.098-4.7109-22.41-4.7109zm38.188 32.51h4.9356c2.853 0 5.0605 0.40556 6.6445 1.0254l0.082 0.0312c1.537 0.57089 2.3469 1.2469 2.9942 2.2266l0.027 0.043 0.029 0.043c0.5754 0.83285 1.041 2.1518 1.041 4.4062 0 2.2124-0.4586 3.4799-1.0156 4.2715l-0.018 0.0254-0.019 0.0254c-0.62 0.90483-1.4243 1.5616-2.9648 2.1152-1.637 0.56628-3.9095 0.9336-6.8028 0.9336h-4.9355zm-460.38 17.043 4.0195 13.312h-8.0391zm76.947 112.6c-10.184 0-19.616 2.2315-28.012 6.7266-8.4364 4.501-15.231 11.269-20.141 19.943v6e-3c-4.9735 8.8166-7.3379 19.456-7.3379 31.658 0 12.138 2.3684 22.757 7.334 31.598l0.012 0.0234c4.9092 8.6372 11.694 15.408 20.113 19.973l0.023 0.012c8.3958 4.4951 17.828 6.7266 28.012 6.7266 10.115 0 19.508-2.214 27.896-6.668l0.016-8e-3c8.4609-4.53 15.272-11.289 20.186-19.934v-8e-3c5.0072-8.8473 7.3906-19.508 7.3906-31.715 0-12.202-2.3822-22.848-7.3906-31.664v-6e-3c-4.9124-8.6772-11.73-15.445-20.199-19.943-8.3874-4.4881-17.784-6.7207-27.9-6.7207zm-165.79 1.4199v113.83h38.188v-30.822h10.613c8.5244 0 16.243-1.597 22.951-4.9297 6.7161-3.3199 12.138-8.2241 15.9-14.465 3.8341-6.3034 5.6914-13.731 5.6914-21.904 0-8.0942-1.797-15.487-5.4961-21.834-3.6664-6.2907-8.934-11.289-15.477-14.732-6.5899-3.4684-14.193-5.1387-22.557-5.1387zm241.28 0v113.83h38.188v-113.83h-5zm58.586 0v113.83h38.188v-44.34l30.494 44.34h31.154v-113.83h-38.188v44.279l-30.07-44.279zm117.39 0v32.711h31.229v81.115h37.783v-81.115h31.228v-32.711zm-379.07 32.51h4.9356c2.734 0 4.7657 0.4747 6.2559 1.209l0.0391 0.0176 0.0391 0.0195c1.5631 0.73689 2.4998 1.6043 3.2461 2.875l0.0234 0.041 0.0254 0.041c0.73356 1.1968 1.1894 2.7377 1.1894 4.9922 0 2.2124-0.45002 3.7937-1.2266 5.1016l-0.0156 0.0254-0.0137 0.0254c-0.7614 1.317-1.7366 2.2457-3.3164 3.0391-1.4894 0.73194-3.5172 1.2051-6.2461 1.2051h-4.9356zm127.6 0.60742c3.867 0 6.6534 0.86809 8.8887 2.4375l0.051 0.0352c2.2822 1.5615 4.0582 3.8392 5.3945 7.375l0.01 0.0215 0.01 0.0234c1.3581 3.4923 2.1445 8.1294 2.1445 13.904s-0.7843 10.431-2.1484 13.967l-0.01 0.02c-1.3342 3.5022-3.1175 5.7974-5.4258 7.4023-2.235 1.5443-5.037 2.4062-8.9141 2.4062-3.8672 0-6.6889-0.85946-8.9648-2.4102-2.2682-1.601-4.061-3.9119-5.4258-7.4102-1.3352-3.5429-2.1035-8.2016-2.1035-13.975 0-5.7794 0.7714-10.427 2.1035-13.928 1.3721-3.551 3.1661-5.8503 5.4219-7.4102l0.01-4e-3v-2e-3c2.2791-1.5834 5.092-2.4531 8.959-2.4531z" color="#000000"/>
 <rect transform="matrix(1 0 0 .2929 -704.69 41.13)" x="763.91" y="338.15" width="702.83" height="3.1109" ry="0" fill="#00d900" filter="url(#filter10434)" opacity=".5614" stroke="#00d900" stroke-linecap="round" stroke-linejoin="round" stroke-miterlimit="3" stroke-width="27.716" style="mix-blend-mode:normal"/>
 <rect transform="matrix(1 0 0 .2929 37.31 41.13)" x="763.91" y="342.15" width="734.93" height="0" ry="0" fill="#55e555" filter="url(#filter10442)" opacity=".55965" stroke="#55e555" stroke-linecap="round" stroke-linejoin="round" stroke-miterlimit="3" stroke-width="12.934" style="mix-blend-mode:normal"/>
 <rect transform="matrix(1 0 0 .2929 37.31 41.13)" x="763.91" y="342.15" width="734.93" height="0" ry="0" fill="#aaf2aa" fill-opacity=".94118" filter="url(#filter10446)" opacity=".5579" stroke="#aaf2aa" stroke-linecap="round" stroke-linejoin="round" stroke-miterlimit="3" stroke-opacity=".94118" stroke-width="5.5432" style="mix-blend-mode:normal"/>
 <rect x="59.219" y="140.17" width="702.83" height=".91116" ry=".40822" fill="#fff"/>
 <path d="m364.3 4.13c-9.3281 0-17.777 2.0433-25.348 6.1328-7.5706 4.0557-13.588 10.056-18.049 17.998-4.4612 7.9086-6.6914 17.642-6.6914 29.201 0 11.491 2.1812 21.208 6.541 29.15 4.3937 7.9424 10.358 13.957 17.895 18.047 7.5706 4.0895 16.121 6.1348 25.652 6.1348 7.6044 0 14.28-1.166 20.025-3.498 5.7455-2.332 10.561-5.4075 14.447-9.2266 3.9205-3.8529 6.9469-8.0434 9.0761-12.572 2.1293-4.5626 3.3613-9.0419 3.6993-13.436l-28.592-0.20312c-0.338 2.2306-0.9965 4.2419-1.9766 6.0332-0.9463 1.7575-2.1802 3.2612-3.7012 4.5117-1.5208 1.2505-3.3134 2.2147-5.375 2.8906-2.0616 0.64215-4.3937 0.96289-6.9961 0.96289-4.5626 0-8.4644-1.0641-11.709-3.1934-3.2445-2.163-5.7294-5.3744-7.4531-9.6328-1.6898-4.2923-2.5351-9.6148-2.5351-15.969 0-6.0159 0.8283-11.171 2.4843-15.463 1.6899-4.2923 4.1579-7.5885 7.4024-9.8867 3.2783-2.2982 7.282-3.4473 12.014-3.4473 2.7038 0 5.1208 0.38867 7.25 1.166 2.1292 0.74354 3.9367 1.8266 5.4238 3.2461 1.5209 1.3857 2.7039 3.0404 3.5488 4.9668 0.8787 1.9264 1.4203 4.0736 1.6231 6.4394h28.592c-0.5408-6.4553-2.0785-12.184-4.6133-17.186s-5.8801-9.2115-10.037-12.625c-4.1571-3.4473-8.991-6.0662-14.5-7.8574s-11.541-2.6856-18.098-2.6856zm-299.47 1.418v103.83h28.188v-40.557h37.312v40.557h28.188v-103.83h-28.188v40.557h-37.312v-40.557zm154.91 0-34.271 103.83h30.418l6-19.873h34.234l6 19.873h30.418l-34.27-103.83zm221.6 0v103.83h28.188v-26.768l9.3281-12.168 23.32 38.936h33.662l-35.893-57.59 35.082-46.236h-32.852l-31.229 41.977h-1.4199v-41.977h-28.188zm119.02 0v103.83h74.623v-22.711h-46.438v-17.846h42.789v-22.713h-42.789v-17.844h46.641v-22.713h-74.826zm105.83 0v103.83h28.188v-34.271h9.7558l18.228 34.271h30.621l-21.096-38.729c5.3837-2.5844 9.6207-6.242 12.68-11.004 3.3122-5.1034 4.9688-11.373 4.9688-18.809 0-7.3678-1.6057-13.689-4.8164-18.961-3.2108-5.2724-7.707-9.31-13.486-12.115-5.7793-2.8052-12.521-4.209-20.226-4.209h-44.816zm28.188 22.51h9.9375c3.3121 0 6.1328 0.4566 8.4648 1.3691 2.3659 0.87872 4.1753 2.2636 5.4258 4.1562 1.2843 1.8588 1.9258 4.2758 1.9258 7.25 0 2.9404-0.6415 5.3234-1.9258 7.1484-1.2505 1.8251-3.0599 3.159-5.4258 4.0039-2.332 0.81114-5.1527 1.2168-8.4648 1.2168h-9.9375v-25.145zm-455.78 6.084h0.81055l10.346 34.27h-21.502l10.346-34.27z" fill="#f00"/>
 <path d="m316 167.7c-9.4632 0-18.014 2.0453-25.652 6.1348-7.6044 4.0557-13.655 10.054-18.15 17.996-4.4613 7.9086-6.6914 17.642-6.6914 29.201 0 11.491 2.2301 21.208 6.6914 29.15 4.4951 7.9086 10.546 13.926 18.15 18.049 7.6382 4.0895 16.189 6.1328 25.652 6.1328 9.3957 0 17.913-2.0264 25.551-6.082 7.6382-4.0895 13.704-10.089 18.199-17.998 4.4951-7.9424 6.7422-17.693 6.7422-29.252s-2.2471-21.293-6.7422-29.201c-4.495-7.9424-10.561-13.94-18.199-17.996-7.6382-4.0895-16.155-6.1348-25.551-6.1348zm-160.79 1.4199v103.83h28.188v-30.824h15.615c7.9086 0 14.82-1.4698 20.734-4.4102 5.9483-2.9404 10.562-7.1309 13.84-12.572 3.3121-5.4414 4.9688-11.881 4.9688-19.316 0-7.3678-1.6057-13.805-4.8164-19.314-3.2108-5.509-7.707-9.7844-13.486-12.826-5.7793-3.0418-12.521-4.5625-20.227-4.5625h-44.816zm241.27 0v103.83h28.188v-103.83zm58.584 0v103.83h28.188v-54.551h0.6094l37.514 54.551h23.523v-103.83h-28.188v54.346h-0.8106l-36.906-54.346h-23.93zm117.39 0v22.711h31.228v81.115h27.781v-81.115h31.23v-22.711h-90.24zm-389.06 22.508h9.9375c3.3121 0 6.1328 0.57551 8.4648 1.7246 2.3658 1.1153 4.1753 2.738 5.4258 4.8672 1.2843 2.0954 1.9258 4.6294 1.9258 7.6035 0 2.9404-0.64148 5.4932-1.9258 7.6562-1.2505 2.163-3.06 3.8347-5.4258 5.0176-2.332 1.1491-5.1527 1.7246-8.4648 1.7246h-9.9375v-28.594zm132.6 0.60938c4.664 0 8.5848 1.1151 11.762 3.3457 3.2107 2.1968 5.6257 5.4421 7.248 9.7344 1.6561 4.2585 2.4844 9.4961 2.4844 15.715s-0.8283 11.475-2.4844 15.768c-1.6223 4.2585-4.0373 7.5018-7.248 9.7324-3.177 2.1968-7.0978 3.2949-11.762 3.2949s-8.6017-1.0981-11.812-3.2949c-3.1769-2.2306-5.5939-5.474-7.25-9.7324-1.6222-4.2923-2.4335-9.5489-2.4335-15.768s0.8113-11.456 2.4335-15.715c1.6561-4.2923 4.0731-7.5376 7.25-9.7344 3.2108-2.2306 7.1485-3.3457 11.812-3.3457z" fill="#f00"/>
</svg>
