<?xml version="1.0" encoding="UTF-8"?>
<!-- Created with Inkscape (http://www.inkscape.org/) -->
<svg width="98.418mm" height="61.402mm" version="1.1" viewBox="0 0 98.418 61.402" xmlns="http://www.w3.org/2000/svg">
 <g transform="translate(-49.786,-30.437)" fill="#fff" stroke-width="0">
  <path d="m133.37 52.515c-7.6758-2.0473-15.836 0.6423-20.789 6.8526l-8.5985-2.3039-8.7273 5.4264 4.4072 8.9453 8.6758 2.3247c0.79603 8.2877 6.6431 15.215 14.679 17.392 10.67 2.8591 21.637-3.4728 24.495-14.142 2.8587-10.669-3.4731-21.636-14.143-24.495zm6.0167 16.106c3.2007 0.85755 5.1003 4.1474 4.2429 7.3482-0.85761 3.2009-4.1478 5.1005-7.3486 4.2427-3.2009-0.8576-5.1005-4.1478-4.2428-7.3487 0.85783-3.2007 4.1478-5.1 7.3485-4.2422z"/>
  <path d="m53.536 65.842-3.7505 6.2329 1.2877 4.8059 6.345 3.4502 3.6139-0.96834 2.3993-4.1556 4.1557 2.3993 0.01397-0.0037 2.3988-4.1555 4.1552 2.3994 0.01397-0.0037 2.3993-4.1556 4.1556 2.3993 14.208-3.8072-8.2895-5.5437 4.8449-9.0626z"/>
  <rect x="91.796" y="30.437" width="6" height="15"/>
  <rect transform="rotate(-30)" x="47.906" y="69.921" width="6" height="15"/>
  <rect transform="matrix(-.86603 -.5 -.5 .86603 0 0)" x="-116.29" y="-24.876" width="6" height="15"/>
 </g>
</svg>
